<?xml version="1.0" encoding="UTF-8"?>
<svg id="Capa_1" data-name="Capa 1" xmlns="http://www.w3.org/2000/svg" viewBox="0 0 566.93 475.68">
  <polygon points="291.55 475.68 291.55 161.34 405.86 161.34 380.05 205.94 332.68 205.94 332.68 320.75 424.86 161.52 291.55 68.38 291.55 0 566.93 0 489.9 133.06 455.33 108.88 492.54 44.6 333.46 44.6 481.31 147.9 291.55 475.68"/>
  <polygon points="275.38 475.68 275.38 161.34 161.07 161.34 186.88 205.94 234.25 205.94 234.25 320.75 142.07 161.52 275.38 68.38 275.38 0 0 0 77.03 133.06 111.6 108.88 74.39 44.6 233.47 44.6 85.62 147.9 275.38 475.68"/>
</svg>